<?xml version="1.0" encoding="UTF-8" standalone="no"?>
<!DOCTYPE svg PUBLIC "-//W3C//DTD SVG 1.1//EN"
 "http://www.w3.org/Graphics/SVG/1.1/DTD/svg11.dtd">
<!-- Generated by graphviz version 14.1.2 (20260124.0452)
 -->
<!-- Title: Skill Pipeline Pages: 1 -->
<svg width="1289pt" height="101pt"
 viewBox="0.00 0.00 1289.00 101.00" xmlns="http://www.w3.org/2000/svg" xmlns:xlink="http://www.w3.org/1999/xlink">
<g id="graph0" class="graph" transform="scale(1 1) rotate(0) translate(4 97)">
<title>Skill Pipeline</title>
<polygon fill="white" stroke="none" points="-4,4 -4,-97 1285.32,-97 1285.32,4 -4,4"/>
<g id="clust1" class="cluster">
<title>cluster_inception</title>
<polygon fill="#e8f5e9" stroke="#e8f5e9" points="8,-8 8,-85 594.82,-85 594.82,-8 8,-8"/>
<text xml:space="preserve" text-anchor="middle" x="301.41" y="-67.7" font-family="Times,serif" font-size="14.00">Inception Phase</text>
</g>
<g id="clust2" class="cluster">
<title>cluster_development</title>
<polygon fill="#e3f2fd" stroke="#e3f2fd" points="614.82,-8 614.82,-85 1003.32,-85 1003.32,-8 614.82,-8"/>
<text xml:space="preserve" text-anchor="middle" x="809.07" y="-67.7" font-family="Times,serif" font-size="14.00">Development Phase</text>
</g>
<g id="clust3" class="cluster">
<title>cluster_delivery</title>
<polygon fill="#fff3e0" stroke="#fff3e0" points="1023.32,-8 1023.32,-85 1273.32,-85 1273.32,-8 1023.32,-8"/>
<text xml:space="preserve" text-anchor="middle" x="1148.32" y="-67.7" font-family="Times,serif" font-size="14.00">Delivery Phase</text>
</g>
<!-- signal -->
<g id="node1" class="node">
<title>signal</title>
<ellipse fill="#fffde7" stroke="black" cx="43.66" cy="-34" rx="27.66" ry="18"/>
<text xml:space="preserve" text-anchor="middle" x="43.66" y="-29.55" font-family="Helvetica,sans-Serif" font-size="11.00">Signal</text>
</g>
<!-- explore -->
<g id="node2" class="node">
<title>explore</title>
<polygon fill="white" stroke="black" points="204.32,-52 107.32,-52 107.32,-16 204.32,-16 204.32,-52"/>
<text xml:space="preserve" text-anchor="middle" x="155.82" y="-35.55" font-family="Helvetica,sans-Serif" font-size="11.00">inception:explore</text>
<text xml:space="preserve" text-anchor="middle" x="155.82" y="-23.55" font-family="Helvetica,sans-Serif" font-size="11.00">(diverge)</text>
</g>
<!-- signal&#45;&gt;explore -->
<g id="edge1" class="edge">
<title>signal&#45;&gt;explore</title>
<path fill="none" stroke="black" d="M71.61,-34C78.97,-34 87.24,-34 95.64,-34"/>
<polygon fill="black" stroke="black" points="95.59,-37.5 105.59,-34 95.59,-30.5 95.59,-37.5"/>
</g>
<!-- scope -->
<g id="node3" class="node">
<title>scope</title>
<polygon fill="white" stroke="black" points="330.57,-52 240.32,-52 240.32,-16 330.57,-16 330.57,-52"/>
<text xml:space="preserve" text-anchor="middle" x="285.45" y="-35.55" font-family="Helvetica,sans-Serif" font-size="11.00">inception:scope</text>
<text xml:space="preserve" text-anchor="middle" x="285.45" y="-23.55" font-family="Helvetica,sans-Serif" font-size="11.00">(converge)</text>
</g>
<!-- explore&#45;&gt;scope -->
<g id="edge2" class="edge">
<title>explore&#45;&gt;scope</title>
<path fill="none" stroke="black" d="M204.71,-34C212.5,-34 220.63,-34 228.6,-34"/>
<polygon fill="black" stroke="black" points="228.57,-37.5 238.57,-34 228.57,-30.5 228.57,-37.5"/>
</g>
<!-- architect -->
<g id="node4" class="node">
<title>architect</title>
<polygon fill="white" stroke="black" points="468.82,-52 366.57,-52 366.57,-16 468.82,-16 468.82,-52"/>
<text xml:space="preserve" text-anchor="middle" x="417.7" y="-35.55" font-family="Helvetica,sans-Serif" font-size="11.00">inception:architect</text>
<text xml:space="preserve" text-anchor="middle" x="417.7" y="-23.55" font-family="Helvetica,sans-Serif" font-size="11.00">(evaluate)</text>
</g>
<!-- scope&#45;&gt;architect -->
<g id="edge3" class="edge">
<title>scope&#45;&gt;architect</title>
<path fill="none" stroke="black" d="M330.91,-34C338.62,-34 346.77,-34 354.85,-34"/>
<polygon fill="black" stroke="black" points="354.66,-37.5 364.66,-34 354.66,-30.5 354.66,-37.5"/>
</g>
<!-- plan -->
<g id="node5" class="node">
<title>plan</title>
<polygon fill="white" stroke="black" points="586.82,-52 504.82,-52 504.82,-16 586.82,-16 586.82,-52"/>
<text xml:space="preserve" text-anchor="middle" x="545.82" y="-35.55" font-family="Helvetica,sans-Serif" font-size="11.00">inception:plan</text>
<text xml:space="preserve" text-anchor="middle" x="545.82" y="-23.55" font-family="Helvetica,sans-Serif" font-size="11.00">(decompose)</text>
</g>
<!-- architect&#45;&gt;plan -->
<g id="edge4" class="edge">
<title>architect&#45;&gt;plan</title>
<path fill="none" stroke="black" d="M469.27,-34C477.19,-34 485.38,-34 493.33,-34"/>
<polygon fill="black" stroke="black" points="493.2,-37.5 503.2,-34 493.2,-30.5 493.2,-37.5"/>
</g>
<!-- brainstorm -->
<g id="node6" class="node">
<title>brainstorm</title>
<polygon fill="white" stroke="black" points="724.32,-52 622.82,-52 622.82,-16 724.32,-16 724.32,-52"/>
<text xml:space="preserve" text-anchor="middle" x="673.57" y="-29.55" font-family="Helvetica,sans-Serif" font-size="11.00">design:brainstorm</text>
</g>
<!-- plan&#45;&gt;brainstorm -->
<g id="edge5" class="edge">
<title>plan&#45;&gt;brainstorm</title>
<path fill="none" stroke="black" d="M587.3,-34C594.92,-34 603.03,-34 611.12,-34"/>
<polygon fill="black" stroke="black" points="610.96,-37.5 620.96,-34 610.96,-30.5 610.96,-37.5"/>
</g>
<!-- issue -->
<g id="node7" class="node">
<title>issue</title>
<polygon fill="white" stroke="black" points="814.32,-52 760.32,-52 760.32,-16 814.32,-16 814.32,-52"/>
<text xml:space="preserve" text-anchor="middle" x="787.32" y="-29.55" font-family="Helvetica,sans-Serif" font-size="11.00">issue:*</text>
</g>
<!-- brainstorm&#45;&gt;issue -->
<g id="edge6" class="edge">
<title>brainstorm&#45;&gt;issue</title>
<path fill="none" stroke="black" d="M724.56,-34C732.67,-34 740.94,-34 748.69,-34"/>
<polygon fill="black" stroke="black" points="748.43,-37.5 758.43,-34 748.43,-30.5 748.43,-37.5"/>
</g>
<!-- design -->
<g id="node8" class="node">
<title>design</title>
<polygon fill="white" stroke="black" points="905.32,-52 850.32,-52 850.32,-16 905.32,-16 905.32,-52"/>
<text xml:space="preserve" text-anchor="middle" x="877.82" y="-29.55" font-family="Helvetica,sans-Serif" font-size="11.00">design:*</text>
</g>
<!-- issue&#45;&gt;design -->
<g id="edge7" class="edge">
<title>issue&#45;&gt;design</title>
<path fill="none" stroke="black" d="M814.4,-34C822.02,-34 830.52,-34 838.72,-34"/>
<polygon fill="black" stroke="black" points="838.5,-37.5 848.5,-34 838.5,-30.5 838.5,-37.5"/>
</g>
<!-- code -->
<g id="node9" class="node">
<title>code</title>
<polygon fill="white" stroke="black" points="995.32,-52 941.32,-52 941.32,-16 995.32,-16 995.32,-52"/>
<text xml:space="preserve" text-anchor="middle" x="968.32" y="-29.55" font-family="Helvetica,sans-Serif" font-size="11.00">code:*</text>
</g>
<!-- design&#45;&gt;code -->
<g id="edge8" class="edge">
<title>design&#45;&gt;code</title>
<path fill="none" stroke="black" d="M905.38,-34C913.06,-34 921.59,-34 929.81,-34"/>
<polygon fill="black" stroke="black" points="929.58,-37.5 939.58,-34 929.58,-30.5 929.58,-37.5"/>
</g>
<!-- git -->
<g id="node10" class="node">
<title>git</title>
<polygon fill="white" stroke="black" points="1085.32,-52 1031.32,-52 1031.32,-16 1085.32,-16 1085.32,-52"/>
<text xml:space="preserve" text-anchor="middle" x="1058.32" y="-29.55" font-family="Helvetica,sans-Serif" font-size="11.00">git:*</text>
</g>
<!-- code&#45;&gt;git -->
<g id="edge9" class="edge">
<title>code&#45;&gt;git</title>
<path fill="none" stroke="black" d="M995.73,-34C1003.21,-34 1011.51,-34 1019.52,-34"/>
<polygon fill="black" stroke="black" points="1019.43,-37.5 1029.43,-34 1019.43,-30.5 1019.43,-37.5"/>
</g>
<!-- ci -->
<g id="node11" class="node">
<title>ci</title>
<polygon fill="white" stroke="black" points="1175.32,-52 1121.32,-52 1121.32,-16 1175.32,-16 1175.32,-52"/>
<text xml:space="preserve" text-anchor="middle" x="1148.32" y="-29.55" font-family="Helvetica,sans-Serif" font-size="11.00">ci:*</text>
</g>
<!-- git&#45;&gt;ci -->
<g id="edge10" class="edge">
<title>git&#45;&gt;ci</title>
<path fill="none" stroke="black" d="M1085.73,-34C1093.21,-34 1101.51,-34 1109.52,-34"/>
<polygon fill="black" stroke="black" points="1109.43,-37.5 1119.43,-34 1109.43,-30.5 1109.43,-37.5"/>
</g>
<!-- pr -->
<g id="node12" class="node">
<title>pr</title>
<polygon fill="white" stroke="black" points="1265.32,-52 1211.32,-52 1211.32,-16 1265.32,-16 1265.32,-52"/>
<text xml:space="preserve" text-anchor="middle" x="1238.32" y="-29.55" font-family="Helvetica,sans-Serif" font-size="11.00">pr:*</text>
</g>
<!-- ci&#45;&gt;pr -->
<g id="edge11" class="edge">
<title>ci&#45;&gt;pr</title>
<path fill="none" stroke="black" d="M1175.73,-34C1183.21,-34 1191.51,-34 1199.52,-34"/>
<polygon fill="black" stroke="black" points="1199.43,-37.5 1209.43,-34 1199.43,-30.5 1199.43,-37.5"/>
</g>
</g>
</svg>
