<?plantuml 1.2026.1?><svg xmlns="http://www.w3.org/2000/svg" xmlns:xlink="http://www.w3.org/1999/xlink" contentStyleType="text/css" data-diagram-type="DESCRIPTION" height="108px" preserveAspectRatio="none" style="width:1538px;height:108px;background:#FFFFFF;" version="1.1" viewBox="0 0 1538 108" width="1538px" zoomAndPan="magnify"><defs/><g><!--cluster Inception Phase--><g class="cluster" data-qualified-name="Inception Phase" data-source-line="15" id="ent0002"><path d="M13.5,11 L114.1899,11 A3.75,3.75 0 0 1 116.6899,13.5 L123.6899,30 L725.9,30 A2.5,2.5 0 0 1 728.4,32.5 L728.4,98.5 A2.5,2.5 0 0 1 725.9,101 L13.5,101 A2.5,2.5 0 0 1 11,98.5 L11,13.5 A2.5,2.5 0 0 1 13.5,11" fill="#E8F5E9" style="stroke:#999999;stroke-width:1;"/><line style="stroke:#999999;stroke-width:1;" x1="11" x2="123.6899" y1="30" y2="30"/><text fill="#000000" font-family="Helvetica" font-size="13" font-weight="bold" lengthAdjust="spacing" textLength="99.6899" x="15" y="23.0103">Inception Phase</text></g><!--cluster Development Phase--><g class="cluster" data-qualified-name="Development Phase" data-source-line="23" id="ent0008"><path d="M758.9,16 L883.4444,16 A3.75,3.75 0 0 1 885.9444,18.5 L892.9444,35 L1237.28,35 A2.5,2.5 0 0 1 1239.78,37.5 L1239.78,93.5 A2.5,2.5 0 0 1 1237.28,96 L758.9,96 A2.5,2.5 0 0 1 756.4,93.5 L756.4,18.5 A2.5,2.5 0 0 1 758.9,16" fill="#E3F2FD" style="stroke:#999999;stroke-width:1;"/><line style="stroke:#999999;stroke-width:1;" x1="756.4" x2="892.9444" y1="35" y2="35"/><text fill="#000000" font-family="Helvetica" font-size="13" font-weight="bold" lengthAdjust="spacing" textLength="123.5444" x="760.4" y="28.0103">Development Phase</text></g><!--cluster Delivery Phase--><g class="cluster" data-qualified-name="Delivery Phase" data-source-line="30" id="ent0013"><path d="M1270.28,16 L1363.7844,16 A3.75,3.75 0 0 1 1366.2844,18.5 L1373.2844,35 L1528.64,35 A2.5,2.5 0 0 1 1531.14,37.5 L1531.14,93.5 A2.5,2.5 0 0 1 1528.64,96 L1270.28,96 A2.5,2.5 0 0 1 1267.78,93.5 L1267.78,18.5 A2.5,2.5 0 0 1 1270.28,16" fill="#FFF3E0" style="stroke:#999999;stroke-width:1;"/><line style="stroke:#999999;stroke-width:1;" x1="1267.78" x2="1373.2844" y1="35" y2="35"/><text fill="#000000" font-family="Helvetica" font-size="13" font-weight="bold" lengthAdjust="spacing" textLength="92.5044" x="1271.78" y="28.0103">Delivery Phase</text></g><!--entity signal--><g class="entity" data-qualified-name="Inception Phase.signal" data-source-line="16" id="ent0003"><ellipse cx="51.6217" cy="63.9982" fill="#FFFDE7" rx="24.6217" ry="10.7782" style="stroke:#000000;stroke-width:1;"/><text fill="#000000" font-family="Helvetica" font-size="11" lengthAdjust="spacing" textLength="30.5776" x="36.3328" y="65.9982">Signal</text></g><!--entity explore--><g class="entity" data-qualified-name="Inception Phase.explore" data-source-line="17" id="ent0004"><rect fill="#FFFFFF" height="42" rx="2.5" ry="2.5" style="stroke:#666666;stroke-width:1;" width="103.166" x="136.24" y="43"/><text fill="#000000" font-family="Helvetica" font-size="11" lengthAdjust="spacing" textLength="83.166" x="146.24" y="61.4702">inception:explore</text><text fill="#000000" font-family="Helvetica" font-size="11" lengthAdjust="spacing" textLength="43.4038" x="146.24" y="72.4702">(diverge)</text></g><!--entity scope--><g class="entity" data-qualified-name="Inception Phase.scope" data-source-line="18" id="ent0005"><rect fill="#FFFFFF" height="42" rx="2.5" ry="2.5" style="stroke:#666666;stroke-width:1;" width="96.4414" x="299.41" y="43"/><text fill="#000000" font-family="Helvetica" font-size="11" lengthAdjust="spacing" textLength="76.4414" x="309.41" y="61.4702">inception:scope</text><text fill="#000000" font-family="Helvetica" font-size="11" lengthAdjust="spacing" textLength="52.5776" x="309.41" y="72.4702">(converge)</text></g><!--entity architect--><g class="entity" data-qualified-name="Inception Phase.architect" data-source-line="19" id="ent0006"><rect fill="#FFFFFF" height="42" rx="2.5" ry="2.5" style="stroke:#666666;stroke-width:1;" width="108.6606" x="455.85" y="43"/><text fill="#000000" font-family="Helvetica" font-size="11" lengthAdjust="spacing" textLength="88.6606" x="465.85" y="61.4702">inception:architect</text><text fill="#000000" font-family="Helvetica" font-size="11" lengthAdjust="spacing" textLength="48.9146" x="465.85" y="72.4702">(evaluate)</text></g><!--entity plan--><g class="entity" data-qualified-name="Inception Phase.plan" data-source-line="20" id="ent0007"><rect fill="#FFFFFF" height="42" rx="2.5" ry="2.5" style="stroke:#666666;stroke-width:1;" width="87.8853" x="624.51" y="43"/><text fill="#000000" font-family="Helvetica" font-size="11" lengthAdjust="spacing" textLength="67.8853" x="634.51" y="61.4702">inception:plan</text><text fill="#000000" font-family="Helvetica" font-size="11" lengthAdjust="spacing" textLength="64.1953" x="634.51" y="72.4702">(decompose)</text></g><!--entity brainstorm--><g class="entity" data-qualified-name="Development Phase.brainstorm" data-source-line="24" id="ent0009"><rect fill="#FFFFFF" height="31" rx="2.5" ry="2.5" style="stroke:#666666;stroke-width:1;" width="107.4307" x="772.4" y="48.5"/><text fill="#000000" font-family="Helvetica" font-size="11" lengthAdjust="spacing" textLength="87.4307" x="782.4" y="66.9702">design:brainstorm</text></g><!--entity issue--><g class="entity" data-qualified-name="Development Phase.issue" data-source-line="25" id="ent0010"><rect fill="#FFFFFF" height="31" rx="2.5" ry="2.5" style="stroke:#666666;stroke-width:1;" width="53.0161" x="939.83" y="48.5"/><text fill="#000000" font-family="Helvetica" font-size="11" lengthAdjust="spacing" textLength="33.0161" x="949.83" y="66.9702">issue:*</text></g><!--entity design--><g class="entity" data-qualified-name="Development Phase.design" data-source-line="26" id="ent0011"><rect fill="#FFFFFF" height="31" rx="2.5" ry="2.5" style="stroke:#666666;stroke-width:1;" width="59.7515" x="1052.84" y="48.5"/><text fill="#000000" font-family="Helvetica" font-size="11" lengthAdjust="spacing" textLength="39.7515" x="1062.84" y="66.9702">design:*</text></g><!--entity code--><g class="entity" data-qualified-name="Development Phase.code" data-source-line="27" id="ent0012"><rect fill="#FFFFFF" height="31" rx="2.5" ry="2.5" style="stroke:#666666;stroke-width:1;" width="51.1899" x="1172.59" y="48.5"/><text fill="#000000" font-family="Helvetica" font-size="11" lengthAdjust="spacing" textLength="31.1899" x="1182.59" y="66.9702">code:*</text></g><!--entity git--><g class="entity" data-qualified-name="Delivery Phase.git" data-source-line="31" id="ent0014"><rect fill="#FFFFFF" height="31" rx="2.5" ry="2.5" style="stroke:#666666;stroke-width:1;" width="38.9546" x="1283.78" y="48.5"/><text fill="#000000" font-family="Helvetica" font-size="11" lengthAdjust="spacing" textLength="18.9546" x="1293.78" y="66.9702">git:*</text></g><!--entity ci--><g class="entity" data-qualified-name="Delivery Phase.ci" data-source-line="32" id="ent0015"><rect fill="#FFFFFF" height="31" rx="2.5" ry="2.5" style="stroke:#666666;stroke-width:1;" width="35.2808" x="1382.74" y="48.5"/><text fill="#000000" font-family="Helvetica" font-size="11" lengthAdjust="spacing" textLength="15.2808" x="1392.74" y="66.9702">ci:*</text></g><!--entity pr--><g class="entity" data-qualified-name="Delivery Phase.pr" data-source-line="33" id="ent0016"><rect fill="#FFFFFF" height="31" rx="2.5" ry="2.5" style="stroke:#666666;stroke-width:1;" width="37.1177" x="1478.02" y="48.5"/><text fill="#000000" font-family="Helvetica" font-size="11" lengthAdjust="spacing" textLength="17.1177" x="1488.02" y="66.9702">pr:*</text></g><!--link signal to explore--><g class="link" data-entity-1="ent0003" data-entity-2="ent0004" data-link-type="dependency" data-source-line="36" id="lnk17"><path d="M76.61,64 C93.05,64 109.47,64 129.8,64" fill="none" id="signal-to-explore" style="stroke:#000000;stroke-width:1;"/><polygon fill="#000000" points="135.8,64,126.8,60,130.8,64,126.8,68,135.8,64" style="stroke:#000000;stroke-width:1;"/></g><!--link explore to scope--><g class="link" data-entity-1="ent0004" data-entity-2="ent0005" data-link-type="dependency" data-source-line="37" id="lnk18"><path d="M239.63,64 C258.73,64 274.35,64 293.14,64" fill="none" id="explore-to-scope" style="stroke:#000000;stroke-width:1;"/><polygon fill="#000000" points="299.14,64,290.14,60,294.14,64,290.14,68,299.14,64" style="stroke:#000000;stroke-width:1;"/></g><!--link scope to architect--><g class="link" data-entity-1="ent0005" data-entity-2="ent0006" data-link-type="dependency" data-source-line="38" id="lnk19"><path d="M395.93,64 C414.62,64 430.19,64 449.45,64" fill="none" id="scope-to-architect" style="stroke:#000000;stroke-width:1;"/><polygon fill="#000000" points="455.45,64,446.45,60,450.45,64,446.45,68,455.45,64" style="stroke:#000000;stroke-width:1;"/></g><!--link architect to plan--><g class="link" data-entity-1="ent0006" data-entity-2="ent0007" data-link-type="dependency" data-source-line="39" id="lnk20"><path d="M564.96,64 C584.3,64 599.84,64 618.17,64" fill="none" id="architect-to-plan" style="stroke:#000000;stroke-width:1;"/><polygon fill="#000000" points="624.17,64,615.17,60,619.17,64,615.17,68,624.17,64" style="stroke:#000000;stroke-width:1;"/></g><!--link plan to brainstorm--><g class="link" data-entity-1="ent0007" data-entity-2="ent0009" data-link-type="dependency" data-source-line="40" id="lnk21"><path d="M712.81,64 C731.16,64 746.72,64 766.01,64" fill="none" id="plan-to-brainstorm" style="stroke:#000000;stroke-width:1;"/><polygon fill="#000000" points="772.01,64,763.01,60,767.01,64,763.01,68,772.01,64" style="stroke:#000000;stroke-width:1;"/></g><!--link brainstorm to issue--><g class="link" data-entity-1="ent0009" data-entity-2="ent0010" data-link-type="dependency" data-source-line="41" id="lnk22"><path d="M880.16,64 C900.56,64 916.94,64 933.64,64" fill="none" id="brainstorm-to-issue" style="stroke:#000000;stroke-width:1;"/><polygon fill="#000000" points="939.64,64,930.64,60,934.64,64,930.64,68,939.64,64" style="stroke:#000000;stroke-width:1;"/></g><!--link issue to design--><g class="link" data-entity-1="ent0010" data-entity-2="ent0011" data-link-type="dependency" data-source-line="42" id="lnk23"><path d="M993.29,64 C1010.96,64 1028.36,64 1046.65,64" fill="none" id="issue-to-design" style="stroke:#000000;stroke-width:1;"/><polygon fill="#000000" points="1052.65,64,1043.65,60,1047.65,64,1043.65,68,1052.65,64" style="stroke:#000000;stroke-width:1;"/></g><!--link design to code--><g class="link" data-entity-1="ent0011" data-entity-2="ent0012" data-link-type="dependency" data-source-line="43" id="lnk24"><path d="M1112.94,64 C1131.33,64 1148.8,64 1166.3,64" fill="none" id="design-to-code" style="stroke:#000000;stroke-width:1;"/><polygon fill="#000000" points="1172.3,64,1163.3,60,1167.3,64,1163.3,68,1172.3,64" style="stroke:#000000;stroke-width:1;"/></g><!--link code to git--><g class="link" data-entity-1="ent0012" data-entity-2="ent0014" data-link-type="dependency" data-source-line="44" id="lnk25"><path d="M1224.14,64 C1242.37,64 1260.72,64 1277.35,64" fill="none" id="code-to-git" style="stroke:#000000;stroke-width:1;"/><polygon fill="#000000" points="1283.35,64,1274.35,60,1278.35,64,1274.35,68,1283.35,64" style="stroke:#000000;stroke-width:1;"/></g><!--link git to ci--><g class="link" data-entity-1="ent0014" data-entity-2="ent0015" data-link-type="dependency" data-source-line="45" id="lnk26"><path d="M1323.05,64 C1340.38,64 1359.86,64 1376.54,64" fill="none" id="git-to-ci" style="stroke:#000000;stroke-width:1;"/><polygon fill="#000000" points="1382.54,64,1373.54,60,1377.54,64,1373.54,68,1382.54,64" style="stroke:#000000;stroke-width:1;"/></g><!--link ci to pr--><g class="link" data-entity-1="ent0015" data-entity-2="ent0016" data-link-type="dependency" data-source-line="46" id="lnk27"><path d="M1418.22,64 C1434.94,64 1454.49,64 1471.6,64" fill="none" id="ci-to-pr" style="stroke:#000000;stroke-width:1;"/><polygon fill="#000000" points="1477.6,64,1468.6,60,1472.6,64,1468.6,68,1477.6,64" style="stroke:#000000;stroke-width:1;"/></g><?plantuml-src TLB9Ri8m4BtdArouG2MaKjG53Zsq96elLIMklHXdI2mSsx8DBQtwxxKd9WcR9OnPtppU-CgLK07HWdAP25WvuXGnl2WToRa1vhYIYLrpgQcX5LbIjYwCsiZyHGbbo5V97NJoEQpeHhXCIVTEFUuhY2qupkZvcWN_0J8UTv9X99M5W6TbSZ3rbFuzdhDbPmbrAhKle0MGtuJuSu0wnOFnbioazTrE05agaIT_IRB7wRr91Zh8GZvAQg57-kbZTfTEuuJ1WXUIYY6XbbWqIJ_BiddwWEc6EEndFT0ClhKd19zoaFCjc0A6lT0UmvVxB5CwT34bEsqOlTn43GiQCUSROKl5XhhOs6GkD_jt8WDDOAhIoiR643tGQ0vR44fN85shqYIxpUPHfGvu3a6csTBu5sYTCXL2jku96MitCBl6AhGl0DOLjANDSmbI-XmZc4NSHbh1hYFljJTARK-85Tn73MoSJ-1wV7wUqYIbjmk3uI4QZfsRXyOknUfjuezykgR4mZZi85teT-LeJCxLaUACV1Qe_6455meLU-6_-LsTumdWzpVm3?></g></svg>
